<?xml version="1.0" encoding="UTF-8" standalone="no"?>
<!DOCTYPE svg PUBLIC "-//W3C//DTD SVG 1.1//EN" "http://www.w3.org/Graphics/SVG/1.1/DTD/svg11.dtd">
<!-- Created with Vectornator (http://vectornator.io/) -->
<svg height="100%" stroke-miterlimit="10" style="fill-rule:nonzero;clip-rule:evenodd;stroke-linecap:round;stroke-linejoin:round;" version="1.1" viewBox="0 0 447 348" width="100%" xml:space="preserve" xmlns="http://www.w3.org/2000/svg" xmlns:vectornator="http://vectornator.io" xmlns:xlink="http://www.w3.org/1999/xlink">
<defs/>
<g id="Layer-1" vectornator:layerName="Layer 1">
<path d="M330.899 9.636C320.334 9.63601 311.801 17.7961 311.801 27.8133C311.801 30.1522 312.331 32.3181 313.182 34.371C312.572 35.9257 311.041 37.6866 305.588 40.9286C294.06 47.7836 280.151 59.8326 270.269 58.1856C260.387 56.5387 249.323 55.7696 237.136 55.7696C224.948 55.7696 214.899 56.5387 206.994 58.1856C199.088 59.8326 191.069 62.3697 182.834 65.6636C174.599 68.9576 167.725 72.3945 162.125 76.0178C156.526 79.6411 151.567 83.4548 147.284 87.4074C143.002 91.3601 137.912 97.5959 131.983 106.16C126.054 114.724 120.055 124.082 118.408 128.364C116.761 132.646 112.334 132.83 100.806 134.807C89.277 136.783 78.082 139.843 67.2121 144.125C56.3422 148.407 46.9311 153.236 39.0257 158.506C31.1204 163.776 25.3921 168.228 21.7688 171.852C18.1455 175.475 15.6083 178.274 14.2907 180.25C12.9732 182.226 12.335 184.01 12.335 185.657C12.335 187.304 18.3091 193.786 30.1672 204.985C42.0252 216.184 56.5265 228.148 73.6547 240.995C90.7831 253.841 103.893 263.252 113.116 269.181C117.727 272.145 122.425 275.075 127.036 278.039C126.048 272.605 125.033 267.253 124.045 261.818C122.069 250.948 121.054 237.723 121.054 222.242C121.054 206.761 121.938 193.912 123.585 183.701C125.232 173.49 127.785 163.064 131.408 152.524C135.031 141.983 139.729 132.687 145.329 124.452C150.928 116.218 157.671 108.59 165.577 101.673C173.482 94.756 180.733 89.7967 187.321 86.8322C193.908 83.8677 202.059 81.4456 211.941 79.4692C221.822 77.4929 230.972 76.4782 239.207 76.478C247.441 76.478 256.607 77.4929 266.818 79.4692C277.029 81.4456 284.787 83.3602 290.057 85.3366C295.327 87.3129 300.925 90.3574 306.854 94.3102C312.783 98.2629 317.873 102.207 322.155 106.16C326.437 110.113 330.889 115.072 335.501 121.001C340.112 126.93 345.709 137.748 352.297 153.559C355.413 161.037 361.12 175.137 361.616 175.993C362.112 176.849 364.054 178.945 366.103 178.869C369.408 178.748 372.085 175.711 372.085 171.852C372.085 170.15 372.355 169.128 371.846 162.574C371.208 154.364 368.759 140.531 364.147 130.32C359.536 120.109 355.084 112.22 350.802 106.62C346.52 101.021 342.576 96.5687 338.952 93.2748C337.14 91.6278 335.356 89.9747 333.545 88.3278C336.015 86.0221 338.437 83.7308 340.908 81.425C345.849 76.8135 350.546 73.3765 354.828 71.0708C358.471 69.1092 360.464 68.1666 361.961 67.6194C364.828 69.2453 367.926 70.3806 371.51 70.3805C382.075 70.3806 390.723 62.2204 390.723 52.2032C390.723 42.186 382.075 34.1409 371.51 34.1409C361.336 34.1409 353.243 41.6639 352.642 51.1678C350.346 53.2155 346.303 55.6038 338.952 58.6458C329.4 62.5985 322.787 65.9047 319.164 68.5398C315.541 71.1749 313.249 72.3207 312.261 71.9912C311.273 71.6618 310.258 70.762 309.27 69.115C308.282 67.4681 311.002 56.4538 315.943 51.5129C319.559 47.8965 323.629 46.337 327.447 45.1854C328.606 45.3931 329.676 45.8756 330.899 45.8756C341.464 45.8756 349.996 37.8306 349.996 27.8133C349.996 17.7961 341.464 9.636 330.899 9.636ZM236.1 98.2218C230.748 98.3865 225.445 98.8941 220.339 99.7174C210.128 101.364 201.47 104.032 194.223 107.656C186.977 111.279 180.741 115.731 175.471 121.001C170.201 126.271 164.865 133.653 159.594 143.205C154.324 152.757 150.249 163.821 147.284 176.338C144.32 188.855 142.667 201.327 142.337 213.844C142.008 226.36 143.023 239.339 145.329 252.844C147.634 266.349 150.187 275.76 153.152 281.031C156.116 286.301 158.654 289.984 160.63 291.96C162.606 293.936 162.95 295.324 171.243 300.868C180.246 305.335 174.159 302.722 194.684 311.633C205.515 316.335 216.241 319.42 226.782 321.067C237.322 322.714 249.909 323.352 264.402 323.023C278.895 322.693 293.658 321.04 308.81 318.076C323.962 315.111 335.664 312.312 343.899 309.677C352.134 307.042 365.959 304.155 384.625 295.527C403.292 286.898 418.05 279.662 418.564 275.163C418.749 273.546 406.002 261.153 400.732 256.871C395.462 252.589 388.719 245.6 380.484 236.048C372.249 226.495 364.491 215.808 357.244 203.95C349.998 192.091 344.024 179.882 339.412 167.365C334.801 154.848 330.857 146.19 327.562 141.249C324.268 136.308 320.324 131.349 315.713 126.408C311.101 121.467 305.88 117.146 299.951 113.523C294.022 109.9 287.41 106.839 280.163 104.204C272.917 101.569 263.751 99.6702 252.552 98.682L236.1 98.2218Z" fill="#00a3ac" fill-rule="nonzero" opacity="1" stroke="none"/>
</g>
</svg>
