<?xml version="1.0" encoding="UTF-8" standalone="no"?>
<!DOCTYPE svg PUBLIC "-//W3C//DTD SVG 1.1//EN" "http://www.w3.org/Graphics/SVG/1.1/DTD/svg11.dtd">
<!-- Created with Vectornator (http://vectornator.io/) -->
<svg height="100%" stroke-miterlimit="10" style="fill-rule:nonzero;clip-rule:evenodd;stroke-linecap:round;stroke-linejoin:round;" version="1.1" viewBox="0 0 627.623 725.415" width="100%" xml:space="preserve" xmlns="http://www.w3.org/2000/svg" xmlns:vectornator="http://vectornator.io" xmlns:xlink="http://www.w3.org/1999/xlink">
<defs/>
<g id="Layer-1" vectornator:layerName="Layer 1">
<g opacity="1">
<path d="M212.389 35.9033C212.389 35.9033 124.497 123.529 80.7329 167.528C61.225 187.141 41.9663 206.986 22.5767 226.716C48.7697 252.909 74.6128 279.455 101.139 305.31C101.626 305.784 102.707 305.777 103.202 305.31C115.434 293.739 127.069 281.551 138.92 269.591C164.148 244.132 189.248 218.572 214.42 193.06C201.052 177.781 183.414 162.524 166.452 151.216C167.132 150.536 167.552 149.164 168.514 149.153C228.04 148.481 287.58 148.819 347.108 149.153C361.524 149.234 364.452 167.458 364.452 177.747C364.452 179.13 362.479 183.774 361.389 184.872C314.614 231.983 267.325 278.609 220.545 325.716C217.834 328.447 216.237 333.802 212.389 333.872C175.997 334.534 139.594 333.204 103.202 333.872C102.24 333.89 101.18 334.942 101.139 335.903C100.488 351.197 101.139 381.841 101.139 381.841C101.139 381.841 175.311 456.012 212.389 493.091C219.717 489.427 224.971 482.54 230.764 476.747C262.911 444.601 294.726 412.126 326.702 379.81C313.934 363.85 294.422 351.04 278.733 337.966C279.413 337.286 279.802 335.924 280.764 335.903C310.692 335.238 340.685 337.511 370.577 335.903C370.577 335.903 371.346 335.134 371.42 335.06C371.739 335.512 372.1 335.882 372.608 335.903C387.902 336.554 403.252 336.554 418.545 335.903C418.867 335.89 419.212 335.612 419.577 335.341C419.849 335.648 420.179 335.872 420.577 335.903C432.785 336.867 445.084 335.597 457.327 335.903C472.888 336.292 475.67 353.968 475.67 365.528C475.67 367.9 473.16 371.091 471.608 372.653C422.621 421.976 324.639 520.622 324.639 520.622C324.639 520.622 251.153 519.954 214.42 520.622C213.458 520.64 212.389 522.685 212.389 522.685L212.389 568.591C212.389 568.591 285.703 642.239 322.608 678.81C323.148 679.345 323.959 679.501 324.639 679.841C350.648 654.963 376.328 629.748 401.823 604.343C453.683 552.664 504.774 500.199 556.295 448.185C611.19 392.765 593.737 297.702 536.92 251.216C524.081 240.711 508.763 233.278 493.014 228.778C485.715 226.693 473.859 226.936 468.545 221.622C505.377 147.96 442.124 38.0208 358.327 36.9033C324.886 36.4575 212.389 35.9033 212.389 35.9033Z" fill="#c3c3c3" fill-rule="nonzero" opacity="1" stroke="none"/>
</g>
</g>
</svg>
