<?xml version="1.0" encoding="UTF-8" standalone="no"?>
<!DOCTYPE svg PUBLIC "-//W3C//DTD SVG 1.1//EN" "http://www.w3.org/Graphics/SVG/1.1/DTD/svg11.dtd">
<!-- Created with Vectornator (http://vectornator.io/) -->
<svg height="100%" stroke-miterlimit="10" style="fill-rule:nonzero;clip-rule:evenodd;stroke-linecap:round;stroke-linejoin:round;" version="1.1" viewBox="0 0 2414.33 725.415" width="100%" xml:space="preserve" xmlns="http://www.w3.org/2000/svg" xmlns:vectornator="http://vectornator.io" xmlns:xlink="http://www.w3.org/1999/xlink">
<defs/>
<g id="Layer-1" vectornator:layerName="Layer 1">
<path d="M212.389 35.9033C212.389 35.9033 124.497 123.529 80.7329 167.528C61.225 187.141 41.9663 206.986 22.5767 226.716C48.7697 252.909 74.6128 279.455 101.139 305.31C101.626 305.784 102.707 305.777 103.202 305.31C115.434 293.739 127.069 281.551 138.92 269.591C164.148 244.132 189.248 218.572 214.42 193.06C201.052 177.781 183.414 162.524 166.452 151.216C167.132 150.536 167.552 149.164 168.514 149.153C228.04 148.481 287.58 148.819 347.108 149.153C361.524 149.234 364.452 167.458 364.452 177.747C364.452 179.13 362.479 183.774 361.389 184.872C314.614 231.983 267.325 278.609 220.545 325.716C217.834 328.447 216.237 333.802 212.389 333.872C175.997 334.534 139.594 333.204 103.202 333.872C102.24 333.89 101.18 334.942 101.139 335.903C100.488 351.197 101.139 381.841 101.139 381.841C101.139 381.841 175.311 456.012 212.389 493.091C219.717 489.427 224.971 482.54 230.764 476.747C262.911 444.601 294.726 412.126 326.702 379.81C313.934 363.85 294.422 351.04 278.733 337.966C279.413 337.286 279.802 335.924 280.764 335.903C310.692 335.238 340.685 337.511 370.577 335.903C370.577 335.903 371.346 335.134 371.42 335.06C371.739 335.512 372.1 335.882 372.608 335.903C387.902 336.554 403.252 336.554 418.545 335.903C418.867 335.89 419.212 335.612 419.577 335.341C419.849 335.648 420.179 335.872 420.577 335.903C432.785 336.867 445.084 335.597 457.327 335.903C472.888 336.292 475.67 353.968 475.67 365.528C475.67 367.9 473.16 371.091 471.608 372.653C422.621 421.976 324.639 520.622 324.639 520.622C324.639 520.622 251.153 519.954 214.42 520.622C213.458 520.64 212.389 522.685 212.389 522.685L212.389 568.591C212.389 568.591 285.703 642.239 322.608 678.81C323.148 679.345 323.959 679.501 324.639 679.841C350.648 654.963 376.328 629.748 401.823 604.343C453.683 552.664 504.774 500.199 556.295 448.185C611.19 392.765 593.737 297.702 536.92 251.216C524.081 240.711 508.763 233.278 493.014 228.778C485.715 226.693 473.859 226.936 468.545 221.622C505.377 147.96 442.124 38.0208 358.327 36.9033C324.886 36.4575 212.389 35.9033 212.389 35.9033Z" fill="#37d3b2" fill-rule="nonzero" opacity="1" stroke="none" vectornator:layerName="path"/>
<g fill="#009777" opacity="1" stroke="none" vectornator:layerName="Text 1">
<path d="M1181.51 249.531L1181.51 283.323L1182.28 350.907C1182.28 350.907 1182.28 358.843 1182.28 374.715C1182.28 432.06 1181.51 466.363 1179.97 477.627C1175.88 516.54 1163.33 547.003 1142.34 569.019C1101.89 612.028 1040.71 633.531 958.79 633.531C874.31 633.531 814.406 611.26 779.078 566.716C757.574 539.579 746.822 499.388 746.822 446.139C746.822 441.531 747.59 413.116 749.126 360.891C750.15 326.075 750.662 298.172 750.662 277.179L750.662 247.227C750.662 219.579 743.238 205.755 728.39 205.755C724.806 205.755 719.174 206.651 711.494 208.443C703.814 210.236 697.67 211.131 693.062 211.131C681.286 211.131 671.43 206.396 663.494 196.923C655.558 187.451 651.59 175.548 651.59 161.211C651.59 143.803 657.094 129.98 668.102 119.739C679.11 109.499 693.574 104.38 711.494 104.38C722.758 104.38 739.654 105.659 762.182 108.219C784.71 110.78 801.606 112.059 812.87 112.059C822.598 112.059 837.062 110.78 856.262 108.219C875.462 105.659 889.926 104.38 899.654 104.38C915.014 104.38 927.302 109.499 936.518 119.739C945.734 129.98 950.342 143.803 950.342 161.211C950.342 191.932 939.846 207.291 918.854 207.291L911.174 207.291C908.614 206.779 905.286 206.523 901.19 206.523C892.486 206.523 887.366 211.899 885.83 222.651C885.83 223.164 885.83 232.123 885.83 249.531L885.83 425.404C885.83 460.732 891.846 485.691 903.878 500.284C915.91 514.876 936.262 522.171 964.934 522.171C993.606 522.171 1014.47 514.62 1027.53 499.515C1040.58 484.411 1047.11 459.708 1047.11 425.404L1047.11 249.531C1047.11 230.587 1046.09 218.684 1044.04 213.819C1041.99 208.955 1037.38 206.523 1030.21 206.523C1026.63 206.523 1023.56 206.779 1021 207.291L1013.32 207.291C992.326 207.291 981.83 191.676 981.83 160.443C981.83 143.547 986.566 129.98 996.038 119.739C1005.51 109.499 1017.93 104.38 1033.29 104.38C1043.01 104.38 1057.73 105.659 1077.45 108.219C1097.16 110.78 1111.88 112.059 1121.61 112.059C1132.87 112.059 1149.77 110.78 1172.29 108.219C1194.82 105.659 1211.72 104.38 1222.98 104.38C1240.39 104.38 1254.34 109.499 1264.84 119.739C1275.33 129.98 1280.58 143.803 1280.58 161.211C1280.58 176.06 1276.61 188.091 1268.68 197.307C1260.74 206.524 1250.37 211.131 1237.57 211.131C1233.48 211.131 1227.72 210.236 1220.29 208.443C1212.87 206.651 1207.37 205.755 1203.78 205.755C1188.93 205.755 1181.51 220.347 1181.51 249.531Z"/>
<path d="M1557.83 205.755C1541.45 205.755 1533.25 219.835 1533.25 247.995L1533.25 464.572C1533.25 484.54 1534.02 497.083 1535.56 502.203C1539.65 515.516 1548.36 523.195 1561.67 525.244C1564.74 525.756 1568.58 526.139 1573.19 526.395C1577.8 526.652 1582.92 526.779 1588.55 526.779L1626.18 526.779C1667.65 526.779 1688.39 513.98 1688.39 488.38C1688.39 480.699 1687.37 472.508 1685.32 463.803C1682.76 451.003 1681.48 441.02 1681.48 433.851C1681.48 417.467 1687.62 403.772 1699.91 392.763C1712.2 381.755 1727.56 376.251 1745.99 376.251C1786.95 376.251 1807.43 396.475 1807.43 436.923C1807.43 441.532 1807.17 447.163 1806.66 453.819C1806.15 460.476 1805.38 468.155 1804.36 476.86C1803.33 485.564 1802.57 493.243 1802.05 499.899C1801.54 506.556 1801.29 511.931 1801.29 516.027C1801.29 521.148 1801.41 526.267 1801.67 531.387C1801.93 536.508 1802.31 541.627 1802.82 546.747C1803.85 556.988 1804.61 565.051 1805.13 570.939C1805.64 576.828 1805.89 580.283 1805.89 581.308C1805.89 609.468 1789.25 623.548 1755.97 623.548C1747.27 623.548 1736.77 623.292 1724.49 622.779C1712.2 622.267 1697.86 621.5 1681.48 620.476C1632.33 617.403 1561.67 615.867 1469.51 615.867C1455.69 615.867 1443.27 616.251 1432.26 617.019C1421.25 617.788 1411.14 618.811 1401.93 620.091C1392.71 621.372 1384.13 622.395 1376.2 623.163C1368.26 623.932 1360.45 624.315 1352.77 624.315C1336.9 624.315 1323.97 618.94 1313.99 608.188C1304.01 597.435 1299.01 583.868 1299.01 567.483C1299.01 552.635 1302.98 540.476 1310.92 531.004C1318.85 521.531 1328.97 516.795 1341.25 516.795C1345.35 516.795 1351.37 517.691 1359.3 519.483C1367.24 521.276 1373.25 522.171 1377.35 522.171C1391.17 522.171 1398.09 504.764 1398.09 469.947L1398.09 257.212C1398.09 222.907 1391.17 205.755 1377.35 205.755C1373.25 205.755 1367.24 206.651 1359.3 208.443C1351.37 210.236 1345.09 211.131 1340.49 211.131C1328.71 211.131 1318.85 206.268 1310.92 196.539C1302.98 186.811 1299.01 174.78 1299.01 160.443C1299.01 123.067 1317.96 104.38 1355.85 104.38C1363.01 104.38 1385.03 105.915 1421.89 108.987C1434.18 110.012 1445.83 110.779 1456.84 111.291C1467.85 111.804 1478.47 112.059 1488.71 112.059C1497.41 112.059 1505.86 111.804 1514.05 111.291C1522.25 110.779 1530.44 110.012 1538.63 108.987C1563.21 105.915 1580.87 104.38 1591.62 104.38C1608.52 104.38 1621.96 109.371 1631.94 119.355C1641.93 129.34 1646.92 142.779 1646.92 159.675C1646.92 174.524 1643.08 186.811 1635.4 196.539C1627.72 206.268 1617.99 211.131 1606.21 211.131C1600.58 211.131 1592.52 210.236 1582.02 208.443C1571.53 206.651 1563.46 205.755 1557.83 205.755Z"/>
<path d="M2083.91 633.531C2006.09 633.531 1945.93 609.98 1903.43 562.875C1860.93 515.771 1839.69 448.956 1839.69 362.427C1839.69 278.971 1860.81 213.308 1903.05 165.435C1945.29 117.563 2003.53 93.6275 2077.77 93.6275C2155.59 93.6275 2216.26 116.923 2259.78 163.515C2303.3 210.108 2325.06 275.131 2325.06 358.587C2325.06 445.116 2303.94 512.571 2261.7 560.956C2219.46 609.34 2160.2 633.531 2083.91 633.531ZM2083.14 201.147C2016.58 201.147 1983.3 255.419 1983.3 363.963C1983.3 415.676 1989.7 454.075 2002.5 479.163C2018.37 510.396 2045 526.011 2082.37 526.011C2148.42 526.011 2181.45 473.276 2181.45 367.803C2181.45 309.435 2173.64 267.068 2158.02 240.7C2142.41 214.331 2117.45 201.147 2083.14 201.147Z"/>
</g>
</g>
</svg>
